<svg t="1661398294772" class="icon" viewBox="0 0 1024 1024" version="1.1" xmlns="http://www.w3.org/2000/svg" p-id="2741"
     width="200" height="200">
    <path d="M671.288889 818.3808c-46.648889 0-124.404622 13.744356-136.533333 45.4656l0 0.705422c-27.0336 0.705422-33.427911 0-45.511111 0-12.105956-31.766756-89.884444-45.511111-136.533333-45.511111l-250.311111 0 0-659.911111 272.156444 0c58.732089 0 109.522489 30.173867 137.4208 74.706489 27.898311-44.532622 78.711467-74.706489 137.466311-74.706489L921.6 159.1296l0 659.2512L671.288889 818.3808zM489.244444 295.662933c0-53.202489-57.457778-91.022222-113.777778-91.022222l-227.555556 0 0 568.888889c0 0 162.178844 0 204.8 0 45.147022-0.796444 116.349156 0.477867 136.533333 33.723733l0-25.486222c-0.864711-31.493689-0.045511-74.501689 0-76.276622L489.244444 310.340267c0-0.022756 0-0.022756 0-0.045511L489.244444 295.662933zM876.088889 204.5952l-227.555556 0c-56.32 0-113.777778 37.796978-113.777778 90.9312l0 14.904889c0 0.022756 0 0.022756 0 0.045511l0 394.467556c0.045511 1.752178 0.864711 44.760178 0 76.1856l0 25.463467c20.184178-33.200356 91.386311-34.497422 136.533333-33.678222 42.621156 0 204.8 0 204.8 0L876.088889 204.5952z"
          p-id="2742"></path>
</svg>