<svg t="1661398628252" class="icon" viewBox="0 0 1024 1024" version="1.1" xmlns="http://www.w3.org/2000/svg" p-id="6046"
     width="200" height="200">
    <path d="M429.300652 532.146812l-27.46139 0c-1.918695 0-2.878555-0.999768-2.878555-2.998281l0-23.624 29.140632 0 0-34.896718c0.078794-9.192341-4.637614-13.79107-14.15025-13.79107l-34.176312 0 0 15.709765 21.465851 0c6.155174 0 9.233273 2.398625 9.233273 7.194852l0 7.194852 0 2.878555-2.757805 0-14.269976 0c-8.714458 0-13.070664 4.516865-13.070664 13.550594l0 32.978023c0 7.515146 3.636823 11.314674 10.912515 11.392445l38.013703 0L429.301675 532.146812z"
          p-id="6047"></path>
    <path d="M317.537419 511.041164l0 57.441132 17.028804-0.119727 0-9.113547c1.598401 5.276156 6.955398 8.394164 16.068945 9.354023l70.631523 0.119727c6.313787 0 9.47375-3.040237 9.47375-9.113547l0-6.595195-70.991726 0 0-18.228117 12.472031 0 0-15.709765-12.472031 0 0-13.550594 13.430867 0 0-15.709765-16.908055 0 0-12.231555 16.429148 0 0-15.589015-16.429148 0 0-6.715945-19.547156 0 0 6.715945-18.46757 0 0 15.589015 10.312859 0c5.435792 0 8.154711 3.078099 8.154711 9.233273l0 2.998281L317.776872 489.815789l0 15.709765 11.751625 0c7.914234 0 11.872375 3.837391 11.872375 11.512172l0 32.737546c-3.677755-0.161682-6.07638-2.158148-7.194852-5.995539l0-32.737546L317.537419 511.042187z"
          p-id="6048"></path>
    <path d="M545.022025 542.220218c-1.679242-2.398625-3.597937-3.597937-5.756086-3.597937l-15.469289 0 8.99382 29.260359 19.067226 0L545.022025 542.220218z"
          p-id="6049"></path>
    <path d="M486.86151 538.622281l-15.469289 0 8.033961 29.260359 20.146812 0-6.955398-25.662422C491.017148 539.821593 489.098453 538.622281 486.86151 538.622281z"
          p-id="6050"></path>
    <path d="M513.243315 538.622281l-15.469289 0 7.914234 29.260359 20.146812 0-6.955398-25.662422C517.279226 539.821593 515.402486 538.622281 513.243315 538.622281z"
          p-id="6051"></path>
    <path d="M441.292753 568.361546 460.359979 568.482296 465.636135 538.262078 447.168565 538.262078Z"
          p-id="6052"></path>
    <path d="M549.698525 522.433609l0-23.984203c0-10.952424-5.516633-16.429148-16.548875-16.429148l-46.40889 0 0-4.916976 62.358108 0 0-16.429148-62.358108 0 0-5.276156-19.785586 0 0 26.622281-8.394164 0c-10.872607 0-16.350354 5.59645-16.429148 16.788328l0 19.306679 0 7.914234 0 7.914234 107.446936 0L549.698525 522.433609zM529.792189 518.116289l-67.752968 0 0-20.266539 60.558116 0c4.79725 0 7.194852 2.67901 7.194852 8.034984L529.792189 518.116289z"
          p-id="6053"></path>
    <path d="M658.94443 464.752001l-27.94132 0 0-9.354023-19.786609 0 0 9.354023-26.501531 0c-13.111596 0-19.747724 6.835672-19.906336 20.505992L564.808634 541.020906l0 7.674781 0 7.914234 35.016445 0c7.59394 0 11.392445 2.835576 11.392445 8.513891l0 3.477188 19.786609 0 0-11.992101 34.176312 0 11.631898 0 0.119727-11.392445 0-60.439413C677.010865 471.428037 671.015326 464.752001 658.94443 464.752001zM611.216501 541.020906l-26.501531 0 0-60.678866 14.390726 0c8.07387 0 12.111828 3.917208 12.111828 11.751625L611.217524 541.020906zM657.025735 541.020906l-3.118008 0-22.904617 0 0-60.678866 14.15025 0c7.914234 0 11.872375 4.036935 11.872375 12.111828L657.025735 541.020906z"
          p-id="6054"></path>
    <path d="M687.605133 465.71186l0 16.668601 78.066851 0c-5.916745 11.67283-12.99187 21.825031-21.225375 30.459671l-23.14407-23.024343-27.581117 0 36.694664 38.254179c-10.3937 8.874094-23.384547 15.90931-38.973562 21.105648l0 19.426406c21.585578-5.116521 39.372651-13.833026 53.363265-26.142351l26.742007 25.662422 29.260359 0-41.25246-40.532054c10.232018-12.309326 20.584786-27.381573 31.059328-45.209577l10.193133 0 0-16.668601L755.239397 465.71186l0-10.312859-21.585578 0 0 10.312859L687.605133 465.71186z"
          p-id="6055"></path>
    <path d="M905.256809 456.71804l-76.628085-0.239453c-11.35356 0-17.028804 5.636359-17.028804 16.908055l0 95.215382 19.306679 0 0-15.469289 14.269976 0 4.556773-12.111828 1.679242 3.837391c1.918695 5.833857 6.274901 8.754367 13.070664 8.754367l0.599656 0 4.556773 0 0.360203 0c6.955398 0 11.431331-2.358716 13.430867-7.075125l0.239453-1.438766 3.477188 8.034984 14.269976 0 0 0.47993-0.119727 14.989359 7.794508 0c7.674781 0 11.590966-3.797482 11.751625-11.392445l0-83.822936C920.925643 462.113923 915.728281 456.558404 905.256809 456.71804zM830.907623 545.817132l0-60.07921 11.272719 32.498093L830.907623 545.817132zM871.080497 535.384547c-0.560771 1.27913-1.558492 2.11824-2.998281 2.518352-1.438766-0.318248-2.359739-0.999768-2.757805-2.038422l-7.794508-19.547156 7.914234-28.900156 10.432586 32.498093L871.080497 535.384547zM901.179966 546.776992l-10.673062-25.662422 10.912515-37.054867L901.179966 546.776992zM889.307591 476.863829l-6.475469 20.266539-6.475469-20.266539-8.154711 0-5.995539 0-8.154711 0-5.15643 17.628461-6.715945-17.628461-11.272719 0 0-4.6765 62.237359 0c5.516633 0 8.274437 1.558492 8.274437 4.6765L889.307591 476.863829z"
          p-id="6056"></path>
    <path d="M276.775121 459.408306c-0.001023-14.888052-8.189503-25.876292-22.497342-30.259104-0.69073-0.211824-1.307783-0.660031-1.958604-0.996698-39.512843 0-79.02671 0-118.539553 0-0.910741 0.412392-1.790782 0.916881-2.735292 1.224895-11.33514 3.699245-18.270072 11.358676-20.828333 23.002854-0.276292 1.258664-0.688684 2.487652-1.038654 3.729944 0 37.276924 0 74.552824 0 111.829748 1.101075 3.535516 1.796922 7.265459 3.377927 10.570732 5.346764 11.184714 14.468497 17.165927 26.824895 17.228349 35.852484 0.184195 71.705992 0.088004 107.5595 0.056282 13.964008-0.01228 25.947923-9.6999 28.899133-23.349754 0.544398-2.520398 0.895391-5.13801 0.898461-7.712643C276.795587 529.625391 276.779214 494.515825 276.775121 459.408306zM197.597985 473.738658c0.099261-1.124611 1.248431-2.429324 2.270712-3.159963 11.779254-8.418723 24.855035-13.018475 39.424839-12.275557 5.713107 0.290618 11.385282 1.521653 17.054387 2.463093 1.940185 0.322341 2.814086 1.509374 2.789527 3.759619-0.127913 12.479194-0.068561 24.961458-0.049119 37.440652 0.005117 2.919487-0.380669 3.290946-3.281736 2.474349-14.192205-3.996003-28.123468-3.349274-41.855186 2.103913-2.548027 1.012048-4.006236 2.256386-3.674685 5.289459 0.298805 2.730175 0.062422 5.519703 0.062422 8.709342 4.068657-1.305736 7.458864-2.516305 10.916609-3.480257 11.880561-3.313459 23.72633-2.91437 35.52298 0.519839 1.661846 0.483 2.436487 1.346668 2.348483 3.197825-0.149402 3.15894-0.100284 6.330159-0.053212 9.495239 0.050142 3.371787-0.442067 3.891626-3.73199 2.902091-6.778367-2.038422-13.69181-2.464116-20.711676-2.260479-11.759811 0.34383-22.385802 4.076844-32.227941 10.369141-1.239221 0.791014-2.759851 1.145077-4.149498 1.702778-0.239453-1.394764-0.679474-2.79055-0.685614-4.187361-0.063445-12.107735-0.110517-24.218539 0.032746-36.325251 0.01535-1.301643 0.95065-3.033074 2.012839-3.815901 12.856793-9.487053 27.345757-13.502498 43.26223-12.489427 3.717664 0.237407 3.714594 0.230243 3.699245-3.539609-0.008186-1.862414-0.093121-3.73199 0.031722-5.586217 0.140193-2.064004-0.522908-2.931766-2.749618-3.176336-15.281001-1.679242-29.088444 2.326994-41.874629 10.496031-0.626262 0.400112-1.202382 0.907671-1.87367 1.204429-1.490954 0.659008-2.612496 0.434904-2.625798-1.503234C197.458816 480.620378 197.296111 477.15854 197.597985 473.738658zM259.14052 557.584107c0.022513 2.660591-0.565887 3.250014-3.147684 2.532678-6.879674-1.914602-13.867818-2.654451-20.998201-2.426254-14.607667 0.46765-27.322221 5.793948-38.601079 14.863493-3.37895 2.715849-3.334948 2.706639-6.67706 0.060375-17.599808-13.930239-37.268737-18.23528-59.048743-12.61734-3.333925 0.859575-3.657289 0.513699-3.646033-2.91437 0.042979-11.925587 0.064468-23.854243-0.083911-35.77983-0.028653-2.321877 0.660031-3.460815 2.889811-3.896742 2.369972-0.462533 4.715386-1.060143 7.055682-1.659799 2.395555-0.613982 3.181453 0.327457 3.147684 2.706639-0.097214 6.988144 0.041955 13.980381-0.091074 20.967502-0.044002 2.366903 0.68766 3.216245 3.063773 2.891858 1.928928-0.264012 3.901859-0.305968 5.852276-0.270152 1.686405 0.029676 2.307551-0.616029 2.301411-2.302434-0.041955-11.742415-0.058328-23.482784 0.01228-35.225199 0.01228-2.060935-0.871855-2.689243-2.702546-2.444674-6.06717 0.809434-12.14969 1.521653-18.187185 2.512212-2.866275 0.469697-3.358484 0.283455-3.320622-2.559284 0.042979-3.2582 0.150426-6.525611-0.042979-9.772555-0.135076-2.260479 0.860599-3.37895 2.869345-3.678778 6.149035-0.918927 12.297046-1.900276 18.477803-2.524491 2.124379-0.213871 3.05354-0.642635 2.906184-2.886741-0.152472-2.319831-0.127913-4.662174-0.007163-6.985074 0.106424-2.050702-0.674357-3.05047-2.739385-2.753711-6.058984 0.871855-12.133317 1.673102-18.157509 2.749618-2.705616 0.484023-3.347228 0.182148-3.304249-2.606356 0.047072-3.071959 0.152472-6.154151-0.041955-9.214854-0.135076-2.125403 0.804317-3.301179 2.652404-3.583611 6.232946-0.953719 12.477148-1.868553 18.745909-2.526538 1.915625-0.200568 3.069912-0.415461 2.806923-2.637055-0.190335-1.612727 0.783851-2.270712 2.209314-2.086517 3.134381 0.406252 6.288204 0.800224 9.347883 1.549282 0.70915 0.172938 1.432626 1.716081 1.519607 2.68515 0.142239 1.599424 0.512675 2.434441 2.243083 2.928696 7.402582 2.111076 14.213695 5.529936 20.319751 10.213599 0.994652 0.763385 1.707895 2.381229 1.843994 3.676732 0.277315 2.673894 0.147356 5.398953 0.036839 8.097406-0.041955 1.030467-0.486069 2.044562-0.745989 3.066843-1.011025-0.292665-2.080377-0.462533-3.02591-0.898461-6.222713-2.871391-12.414726-5.806228-18.627206-8.699109-0.391925-0.183171-0.865715-0.189311-1.946324-0.408298 0 3.910045-0.107447 7.424072 0.096191 10.919679 0.038886 0.661054 1.221825 1.570772 2.043538 1.821481 7.278762 2.2175 13.952752 5.589287 20.141696 10.005868 1.5237 1.087772 2.238989 2.241036 2.143822 4.158708-0.152472 3.067866 0.027629 6.150058-0.061398 9.222017-0.024559 0.847296-0.277315 2.020002-0.855482 2.413974-0.460487 0.314154-1.634217-0.200568-2.387369-0.563841-6.096846-2.941999-12.16197-5.944374-18.248583-8.905816-2.186801-1.063213-3.072982-0.363273-2.92972 2.079354 0.179078 3.060703-0.903578 6.829532 0.522908 9.000983 1.370204 2.085494 5.351881 2.32904 8.007355 3.724827 4.754271 2.500955 9.447144 5.14108 13.994708 7.996099 1.007955 0.633425 1.724267 2.364856 1.840924 3.659336 0.267082 2.956326 0.142239 5.957677 0.044002 8.935492-0.030699 0.94144-0.210801 2.300388-0.81455 2.67594-0.555654 0.34383-1.839901-0.237407-2.68822-0.649798-5.669105-2.755758-11.291138-5.607707-16.971499-8.337882-1.033537-0.495279-2.264572-0.57919-3.889579-0.973162 0 3.537562-0.10233 6.669896 0.084934 9.781764 0.037862 0.627285 1.06526 1.518583 1.799992 1.734501 9.446121 2.788504 17.792189 7.521286 25.165096 14.008011 1.199312 1.05298 2.225687 0.993628 3.429092-0.056282 8.730831-7.60929 18.698837-12.809721 30.081049-15.129552 10.99131-2.242059 21.86187-1.597378 32.513443 1.895159 0.800224 0.264012 1.64445 1.719151 1.704825 2.669801C259.27048 551.060543 259.110845 554.32693 259.14052 557.584107z"
          p-id="6057"></path>
</svg>