<svg t="1661398886622" class="icon" viewBox="0 0 1024 1024" version="1.1" xmlns="http://www.w3.org/2000/svg" p-id="9398"
     width="200" height="200">
    <path d="M893.45 687.25v-0.81c0-12.67-6.77-37.07-25.43-52.36-10.3-8.45-28.25-17.39-55.18-12-35.55 7.11-139.06 12.93-232.05-14.49a771.14 771.14 0 0 1-133.91-54.78c-55.47-29.33-96.21-61.33-117.82-92.55a217 217 0 0 1-13.62-22.58c89.24 42.31 191.36 48 265.66 48 115.32 0 196.87-33.66 228.1-49.05 2.34 0.11 8.71 1.42 14.77 7.41 9.9 9.77 13.94 26.88 11.68 49.48-4.72 47.22-59.48 73.05-60 73.31l8.29 18.17 8.28 18.21c3.11-1.42 76.19-35.41 83.22-105.72 5.46-54.63-18.14-79.62-32.7-89.65-16.2-11.16-36.69-14.36-49.84-7.79-21.41 10.71-99.94 45.62-211.81 45.62-82.05 0-199.91-7.13-289-67.09-24.93-84.93-22.19-176.46-22.09-177.69l0.84-23.89-124.41 17.77v129.41c-2.14 16.63-20.37 164.08-5.68 249.31 11.65 67.57 52.45 134.14 111.93 182.66 35.92 29.29 78.52 52.32 126.62 68.44 53.66 18 114.47 27.41 180.72 28h10.56c139.3 0 235.47-25.86 285.92-76.91 17.34-17.48 37.82-47.08 36.95-88.43zM828 747.63c-29.5 29.86-98.1 65-257.48 65h-10.17c-62.05-0.57-118.7-9.3-168.38-26-43.51-14.58-81.88-35.27-114-61.51-52.11-42.5-87.75-100.26-97.79-158.46-14.22-82.48 5.88-237.05 6.09-238.6l0.17-1.3v-97.3l43.46-6.21c0.94 52.15 9.42 177.67 66.27 259.78 25.61 37 70 72.37 132 105.14 43.18 22.83 96 44.43 141.3 57.79 108.19 31.9 220.42 21.5 251.21 15.34 9.36-1.87 16.51-0.7 21.84 3.6 8.14 6.56 10.87 18.7 10.92 21.54v1.66c0.48 21.97-8.07 42-25.44 59.53z"
          p-id="9399"></path>
</svg>