<svg t="1661398857596" class="icon" viewBox="0 0 1024 1024" version="1.1" xmlns="http://www.w3.org/2000/svg" p-id="8030"
     width="200" height="200">
    <path d="M512 85.333c235.637 0 426.667 191.03 426.667 426.667S747.637 938.667 512 938.667 85.333 747.637 85.333 512 276.363 85.333 512 85.333z m0 64c-200.299 0-362.667 162.368-362.667 362.667S311.701 874.667 512 874.667 874.667 712.299 874.667 512 712.299 149.333 512 149.333z m182.933 503.328l1.142 0.075a9.173 9.173 0 0 1 7.85 8.032l0.075 1.152v37.045l-0.053 2.027c-0.992 18.837-15.766 33.93-34.208 34.955l-2.006 0.053-1.984-0.053c-18.442-1.024-33.205-16.107-34.208-34.955l-0.053-2.027V661.92l0.075-1.152a9.173 9.173 0 0 1 7.85-8.032l1.131-0.075 1.141 0.075a9.173 9.173 0 0 1 7.862 8.032l0.064 1.152v37.045l0.064 1.6c0.746 8.95 7.733 16.075 16.501 16.854l1.557 0.064 1.568-0.075c8.758-0.768 15.744-7.893 16.491-16.853l0.075-1.6V661.92c0-5.11 4.053-9.259 9.066-9.259z m-157.472-0.021l1.142 0.075a9.173 9.173 0 0 1 7.861 8.032l0.064 1.162v37.035l-0.053 2.027c-0.992 18.837-15.766 33.93-34.208 34.954l-1.984 0.054-1.995-0.054c-18.432-1.024-33.216-16.117-34.208-34.954l-0.053-2.027v-37.035l0.064-1.173a9.173 9.173 0 0 1 7.861-8.021l1.141-0.075 1.142 0.075a9.173 9.173 0 0 1 7.85 8.032l0.064 1.162v37.035l0.064 1.6c0.747 8.95 7.744 16.085 16.502 16.853l1.568 0.064 1.557-0.064c8.768-0.768 15.755-7.904 16.501-16.853l0.064-1.6v-37.035c0-5.12 4.054-9.269 9.067-9.269z m-208.394 0l1.184 0.075a8.98 8.98 0 0 1 4.341 1.834l0.907 0.811 23.008 23.573 23.008-23.573 0.928-0.821a8.917 8.917 0 0 1 10.976 0l0.928 0.842 0.81 0.95c2.432 3.274 2.454 7.818 0.054 11.104l-0.886 1.045-26.709 27.37v30.87l-0.075 1.163a9.173 9.173 0 0 1-7.85 8.021l-1.142 0.075-1.13-0.075a9.163 9.163 0 0 1-7.862-8.021l-0.064-1.163v-30.784l-26.805-27.456-0.8-0.917a9.419 9.419 0 0 1-1.813-6.827l0.234-1.216 0.384-1.173a9.099 9.099 0 0 1 8.374-5.718z m104.181 0l1.984 0.064c18.443 1.013 33.216 16.107 34.219 34.944l0.053 2.037v9.259l-0.053 2.027c-1.003 18.837-15.776 33.93-34.219 34.954l-1.984 0.054-1.995-0.054c-18.432-1.024-33.216-16.117-34.208-34.954l-0.053-2.027v-9.259c0-20.458 16.235-37.045 36.256-37.045z m131.413 0l1.131 0.075a9.173 9.173 0 0 1 7.861 8.032l0.064 1.162v64.811l-0.064 1.163a9.163 9.163 0 0 1-7.861 8.021l-1.13 0.075-1.142-0.075a9.163 9.163 0 0 1-7.85-8.021l-0.075-1.163v-64.81c0-5.12 4.053-9.27 9.066-9.27z m51.851-0.01l1.11 0.063c1.77 0.214 3.487 0.971 4.906 2.262l0.992 1.066 0.736 1.056a9.728 9.728 0 0 1-0.768 10.656l-0.843 0.982-25.002 25.546 25.258 25.803 0.64 0.704 0.555 0.768 0.48 0.832 0.523 1.28a9.43 9.43 0 0 1-1.355 8.565l-0.821 0.96-0.95 0.854a8.939 8.939 0 0 1-8.394 1.376l-1.248-0.534-0.811-0.48-0.747-0.586-0.693-0.64-28.672-29.302-0.97-1.098a13.803 13.803 0 0 1 0-17.003l0.97-1.099 28.693-29.333a8.939 8.939 0 0 1 6.411-2.699z m-183.264 18.538l-1.568 0.064c-8.757 0.768-15.755 7.893-16.501 16.853l-0.064 1.6v9.259c0 9.685 7.285 17.643 16.565 18.453l1.568 0.064 1.557-0.064c8.768-0.768 15.744-7.904 16.491-16.853l0.075-1.6v-9.259l-0.075-1.6c-0.79-9.482-8.565-16.917-18.048-16.917z m48.672-375.733l2.176 1.226 136.49 80.512c55.318 32.63 56.171 113.451 2.56 147.563l-2.56 1.557-5.44-3.2 5.44 3.211-136.48 80.512c-30.229 17.835-68.885 7.243-86.346-23.637-17.035-30.155-7.573-68.512 21.013-86.912l2.134-1.312 56.672-33.43 111.168 45.995-94.582-55.787-73.28-43.221c-30.218-17.835-40.586-57.301-23.125-88.203 17.045-30.144 54.283-40.96 84.16-24.853z"
          p-id="8031"></path>
</svg>